# xmcd
#
# Track frame offsets: 
#        150
#        29930
#        59256
#        85462
#        111975
#        118154
#        143657
#        171109
#        195723
#        225911
#        246389
#        278154
#
# Disc length: 4344 seconds
#
# Revision: 0
# Processed by: cddbd v1.5.2PL0 Copyright (c) Steve Scherf et al.
# Submitted via: ExactAudioCopy v0.95b3
#
DISCID=b010f60c
DTITLE=T-Vice - Kite'm_Viv
DYEAR=2006
DGENRE=Kompa
TTITLE0=Kite'm_Viv
TTITLE1=Beaute_Dangereuse
TTITLE2=Cherce_Fanm_Pa'w
TTITLE3=Santi'm_Ta_Kriye
TTITLE4=Interlude
TTITLE5=Ayiti_Pap_Kraze
TTITLE6=Pedale_Kompa
TTITLE7=Get_To_Know_Me
TTITLE8=A_3_(Every_Man's_Fantasy)
TTITLE9=Jaimeraus_te_Revoir
TTITLE10=4_LAS
TTITLE11=Le_Majeur_(Carnaval_2006)
EXTD=
EXTT0=
EXTT1=
EXTT2=
EXTT3=
EXTT4=
EXTT5=
EXTT6=
EXTT7=
EXTT8=
EXTT9=
EXTT10=
EXTT11=
PLAYORDER=
